# xmcd
#
# Track frame offsets:
# 150
# 19201
# 42664
# 68243
# 93248
# 122561
# 138949
# 158821
# 170819
# 187822
# 202341
# 221313
# 239206
# 257861
# 285681
# 296519
# 314947
#
# Disc length: 4448 seconds
#
#
# Revision: 0
# Processed by: cddbd v1.5.1PL0 Copyright (c) Steve Scherf et al.
# Submitted via: FreeRIP 2.942 
#
DISCID=13115e11
DTITLE=Solitas e canbtores - Voz e Violão According Paul
DYEAR=0005
DGENRE=Acoustic
TTITLE0=LENTA BR Canto de Osanha-Baden Powell
TTITLE1=LENTA BR Ingênuo-Baden Powell
TTITLE2=LENTA BR INSTRUM Rosa-Baden Powell
TTITLE3=BOSSA Medley Bossa Nova-Leila Pinheiro
TTITLE4=REGIONAL NE INSTRUM Asa Branca-Baden Powell
TTITLE5=BOSSA A Felicidade-Gal Costa
TTITLE6=SLOW INSTRUM All The Things You Are-Baden Powell
TTITLE7=BOSSA Insensatez-Vinicius de Morais
TTITLE8=LENTA BR Bom dia, Amigo-Baden Powell
TTITLE9=LENTA BR INSTRUM Conserto para uma voz-Paulinho Nogueira
TTITLE10=BOSSA Qua quaraquaquá-Baden Powel
TTITLE11=BOSSA Dunas-Rosa Passos
TTITLE12=BOSSA INSTRUM Samba em prelúdio-Paulinho Nogueira
TTITLE13=LENTA BR INSTRUM Consolação-Baden Powell
TTITLE14=LENTA BR INSTRUM Luiza-Rafael Rabelo
TTITLE15=ZEN and CLASSICA Choro nº 1-Turíbio Santos
TTITLE16=SAMBA LENTO-Adeus América-Rosa Passos
EXTD=ssss
EXTT0=
EXTT1=
EXTT2=
EXTT3=
EXTT4=
EXTT5=
EXTT6=
EXTT7=
EXTT8=
EXTT9=
EXTT10=
EXTT11=
EXTT12=
EXTT13=
EXTT14=
EXTT15=
EXTT16=
PLAYORDER=
